<svg class="svg-icon" style="width: 1.462890625em;height: 1em;vertical-align: middle;fill: currentColor;overflow: hidden;" viewBox="0 0 1498 1024" version="1.1" xmlns="http://www.w3.org/2000/svg"><path d="M432.675722 1023.991873a92.10448 92.10448 0 0 1-32.507463-8.126866A91.427241 91.427241 0 0 1 340.571242 931.887393V541.797831a541.791059 541.791059 0 0 1 541.791059-541.791059 677.238823 677.238823 0 0 1 609.514941 375.867547 67.723882 67.723882 0 0 1-121.22575 60.274256A541.791059 541.791059 0 0 0 882.362301 135.454537a406.343294 406.343294 0 0 0-406.343294 406.343294v274.958962l220.102618-251.255603a67.723882 67.723882 0 1 1 101.585823 89.395524l-295.953366 338.619412a90.750002 90.750002 0 0 1-69.07836 30.475747z m-148.992541-169.986945a67.723882 67.723882 0 0 0 6.09515-95.490674l-169.309706-193.690303a67.723882 67.723882 0 1 0-101.585824 89.395525l169.309706 193.690303a67.723882 67.723882 0 0 0 95.490674 6.095149z" fill="#3E2AD1" /></svg>