<?xml version="1.0" encoding="UTF-8" standalone="no" ?>
<!DOCTYPE svg PUBLIC "-//W3C//DTD SVG 1.1//EN" "http://www.w3.org/Graphics/SVG/1.1/DTD/svg11.dtd">
<svg xmlns="http://www.w3.org/2000/svg" xmlns:xlink="http://www.w3.org/1999/xlink" version="1.1" width="400" height="400" viewBox="0 0 400 400" xml:space="preserve">
<desc>Created with Fabric.js 3.6.2</desc>
<defs>
</defs>
<g transform="matrix(3.13 0 0 3.13 200 168.75)" id="fill"  >
<path style="stroke: none; stroke-width: 1; stroke-dasharray: none; stroke-linecap: butt; stroke-dashoffset: 0; stroke-linejoin: miter; stroke-miterlimit: 4; fill: rgb(229,230,235); fill-rule: nonzero; opacity: 1;"  transform=" translate(-32, -22)" d="M 42 19 L 32 3 L 22 19 L 11 3 V 41 H 53 V 3 Z M 32 22 l -3 -5 l 3 -5 l 3 5 Z" stroke-linecap="round" />
</g>
<g transform="matrix(3.13 0 0 3.13 200 168.75)" id="fill"  >
<path style="stroke: none; stroke-width: 1; stroke-dasharray: none; stroke-linecap: butt; stroke-dashoffset: 0; stroke-linejoin: miter; stroke-miterlimit: 4; fill: rgb(217,218,226); fill-rule: nonzero; opacity: 1;"  transform=" translate(-32, -22)" d="M 50.1 7.221 A 38.006 38.006 0 0 1 13 37 H 11 v 4 H 53 V 3 Z" stroke-linecap="round" />
</g>
<g transform="matrix(3.13 0 0 3.13 199.99 190.63)" id="fill"  >
<path style="stroke: none; stroke-width: 1; stroke-dasharray: none; stroke-linecap: butt; stroke-dashoffset: 0; stroke-linejoin: miter; stroke-miterlimit: 4; fill: rgb(2,125,229); fill-rule: nonzero; opacity: 1;"  transform=" translate(-32, -29)" d="M 28.651 27 a 6 6 0 1 0 0 4 H 35 v 4 h 4 V 31 h 4 v 4 h 4 V 27 Z M 23 31 a 2 2 0 1 1 2 -2 A 2 2 0 0 1 23 31 Z" stroke-linecap="round" />
</g>
<g transform="matrix(3.13 0 0 3.13 264.06 275)" id="fill"  >
<polygon style="stroke: none; stroke-width: 1; stroke-dasharray: none; stroke-linecap: butt; stroke-dashoffset: 0; stroke-linejoin: miter; stroke-miterlimit: 4; fill: rgb(229,230,235); fill-rule: nonzero; opacity: 1;"  points="8.5,5 -8.5,5 -8.5,-5 8.5,-5 3.5,0 8.5,5 " />
</g>
<g transform="matrix(3.13 0 0 3.13 135.94 275)" id="fill"  >
<polygon style="stroke: none; stroke-width: 1; stroke-dasharray: none; stroke-linecap: butt; stroke-dashoffset: 0; stroke-linejoin: miter; stroke-miterlimit: 4; fill: rgb(229,230,235); fill-rule: nonzero; opacity: 1;"  points="-8.5,5 8.5,5 8.5,-5 -8.5,-5 -3.5,0 -8.5,5 " />
</g>
<g transform="matrix(3.13 0 0 3.13 156.25 284.38)" id="fill"  >
<path style="stroke: none; stroke-width: 1; stroke-dasharray: none; stroke-linecap: butt; stroke-dashoffset: 0; stroke-linejoin: miter; stroke-miterlimit: 4; fill: rgb(207,207,217); fill-rule: nonzero; opacity: 1;"  transform=" translate(-18, -59)" d="M 16 57 h 4 a 0 0 0 0 1 0 0 v 4 a 0 0 0 0 1 0 0 h 0 a 4 4 0 0 1 -4 -4 v 0 A 0 0 0 0 1 16 57 Z" stroke-linecap="round" />
</g>
<g transform="matrix(3.13 0 0 3.13 243.75 284.38)" id="fill"  >
<path style="stroke: none; stroke-width: 1; stroke-dasharray: none; stroke-linecap: butt; stroke-dashoffset: 0; stroke-linejoin: miter; stroke-miterlimit: 4; fill: rgb(207,207,217); fill-rule: nonzero; opacity: 1;"  transform=" translate(-46, -59)" d="M 44 57 h 4 a 0 0 0 0 1 0 0 v 0 a 4 4 0 0 1 -4 4 h 0 a 0 0 0 0 1 0 0 V 57 A 0 0 0 0 1 44 57 Z" stroke-linecap="round" />
</g>
<g transform="matrix(3.13 0 0 3.13 200 262.5)" id="fill"  >
<rect style="stroke: none; stroke-width: 1; stroke-dasharray: none; stroke-linecap: butt; stroke-dashoffset: 0; stroke-linejoin: miter; stroke-miterlimit: 4; fill: rgb(217,218,226); fill-rule: nonzero; opacity: 1;"  x="-16" y="-5" rx="0" ry="0" width="32" height="10" />
</g>
<g transform="matrix(3.13 0 0 3.13 200 262.5)" id="fill"  >
<path style="stroke: none; stroke-width: 1; stroke-dasharray: none; stroke-linecap: butt; stroke-dashoffset: 0; stroke-linejoin: miter; stroke-miterlimit: 4; fill: rgb(229,230,235); fill-rule: nonzero; opacity: 1;"  transform=" translate(-32, -52)" d="M 16 47 H 48 a 0 0 0 0 1 0 0 v 0 A 10 10 0 0 1 38 57 H 16 a 0 0 0 0 1 0 0 V 47 a 0 0 0 0 1 0 0 Z" stroke-linecap="round" />
</g>
<g transform="matrix(3.13 0 0 3.13 200 228.13)" id="fill"  >
<rect style="stroke: none; stroke-width: 1; stroke-dasharray: none; stroke-linecap: butt; stroke-dashoffset: 0; stroke-linejoin: miter; stroke-miterlimit: 4; fill: rgb(229,230,235); fill-rule: nonzero; opacity: 1;"  x="-23" y="-2" rx="2" ry="2" width="46" height="4" />
</g>
<g transform="matrix(3.13 0 0 3.13 200 231.25)" id="fill"  >
<path style="stroke: none; stroke-width: 1; stroke-dasharray: none; stroke-linecap: butt; stroke-dashoffset: 0; stroke-linejoin: miter; stroke-miterlimit: 4; fill: rgb(207,207,217); fill-rule: nonzero; opacity: 1;"  transform=" translate(-32, -42)" d="M 11 43 H 53 a 2 2 0 0 0 2 -2 H 9 A 2 2 0 0 0 11 43 Z" stroke-linecap="round" />
</g>
<g transform="matrix(3.13 0 0 3.13 200 171.88)" id="fill"  >
<path style="stroke: none; stroke-width: 1; stroke-dasharray: none; stroke-linecap: butt; stroke-dashoffset: 0; stroke-linejoin: miter; stroke-miterlimit: 4; fill: rgb(0,0,0); fill-rule: nonzero; opacity: 1;"  transform=" translate(-32, -23)" d="M 11 44 H 53 a 2.993 2.993 0 0 0 1 -5.816 V 3 a 1 1 0 0 0 -1.824 -0.566 L 42.04 17.177 L 32.848 2.47 a 1.04 1.04 0 0 0 -1.7 0 L 21.96 17.177 L 11.824 2.434 A 1 1 0 0 0 10 3 V 38.184 A 2.993 2.993 0 0 0 11 44 Z M 21.176 19.566 a 0.974 0.974 0 0 0 0.845 0.434 a 1.006 1.006 0 0 0 0.827 -0.47 L 32 4.887 L 41.152 19.53 a 1.006 1.006 0 0 0 0.827 0.47 a 0.978 0.978 0 0 0 0.845 -0.434 L 52 6.22 V 38 H 12 V 6.22 Z M 11 40 H 53 a 1 1 0 0 1 0 2 H 11 a 1 1 0 0 1 0 -2 Z" stroke-linecap="round" />
</g>
<g transform="matrix(3.13 0 0 3.13 200 153.18)" id="fill"  >
<path style="stroke: none; stroke-width: 1; stroke-dasharray: none; stroke-linecap: butt; stroke-dashoffset: 0; stroke-linejoin: miter; stroke-miterlimit: 4; fill: rgb(0,0,0); fill-rule: nonzero; opacity: 1;"  transform=" translate(-32, -17.02)" d="M 31.143 22.515 a 1 1 0 0 0 1.714 0 l 3 -5 a 1 1 0 0 0 0 -1.03 l -3 -5 a 1.04 1.04 0 0 0 -1.714 0 l -3 5 a 1 1 0 0 0 0 1.03 Z M 32 13.943 L 33.834 17 L 32 20.057 L 30.166 17 Z" stroke-linecap="round" />
</g>
<g transform="matrix(3.13 0 0 3.13 200 268.75)" id="fill"  >
<path style="stroke: none; stroke-width: 1; stroke-dasharray: none; stroke-linecap: butt; stroke-dashoffset: 0; stroke-linejoin: miter; stroke-miterlimit: 4; fill: rgb(0,0,0); fill-rule: nonzero; opacity: 1;"  transform=" translate(-32, -54)" d="M 57.414 56 l 4.293 -4.293 A 1 1 0 0 0 61 50 H 49 V 47 a 1 1 0 0 0 -1 -1 H 16 a 1 1 0 0 0 -1 1 v 3 H 3 a 1 1 0 0 0 -0.707 1.707 L 6.586 56 L 2.293 60.293 A 1 1 0 0 0 3 62 H 20 a 1 1 0 0 0 1 -1 V 58 H 43 v 3 a 1 1 0 0 0 1 1 H 61 a 1 1 0 0 0 0.707 -1.707 Z M 17 48 H 47 v 8 H 17 Z M 8.707 56.707 a 1 1 0 0 0 0 -1.414 L 5.414 52 H 15 v 5 a 4.948 4.948 0 0 0 1.026 3 H 5.414 Z M 19 59.829 A 3.015 3.015 0 0 1 17.176 58 H 19 Z M 46.824 58 A 3.015 3.015 0 0 1 45 59.829 V 58 Z m 1.15 2 A 4.948 4.948 0 0 0 49 57 V 52 h 9.586 l -3.293 3.293 a 1 1 0 0 0 0 1.414 L 58.586 60 Z" stroke-linecap="round" />
</g>
</svg>