<?xml version="1.0" encoding="UTF-8" standalone="no"?>
<!-- Created with Inkscape (http://www.inkscape.org/) -->

<svg
   xmlns:dc="http://purl.org/dc/elements/1.1/"
   xmlns:cc="http://creativecommons.org/ns#"
   xmlns:rdf="http://www.w3.org/1999/02/22-rdf-syntax-ns#"
   xmlns:svg="http://www.w3.org/2000/svg"
   xmlns="http://www.w3.org/2000/svg"
   xmlns:sodipodi="http://sodipodi.sourceforge.net/DTD/sodipodi-0.dtd"
   xmlns:inkscape="http://www.inkscape.org/namespaces/inkscape"
   width="48pt"
   height="48pt"
   viewBox="0 0 16.933334 16.933333"
   version="1.1"
   id="svg979"
   inkscape:version="0.92.4 (5da689c313, 2019-01-14)"
   sodipodi:docname="27 - Cinema Website.svg"
   inkscape:export-filename="E:\TR Design Studio Creative\Project Design\TR Creative Design\Icon Design\Project Hiring\Icon Icons\004 - Cinema\Send\01 - Line\26 - Brochure.png"
   inkscape:export-xdpi="768"
   inkscape:export-ydpi="768">
  <defs
     id="defs973" />
  <sodipodi:namedview
     id="base"
     pagecolor="#ffffff"
     bordercolor="#666666"
     borderopacity="1.0"
     inkscape:pageopacity="0.0"
     inkscape:pageshadow="2"
     inkscape:zoom="4.0390625"
     inkscape:cx="47.808131"
     inkscape:cy="30.403333"
     inkscape:document-units="pt"
     inkscape:current-layer="layer1"
     showgrid="false"
     units="pt"
     inkscape:window-width="1366"
     inkscape:window-height="716"
     inkscape:window-x="-8"
     inkscape:window-y="-8"
     inkscape:window-maximized="1"
     inkscape:snap-bbox="true"
     inkscape:bbox-nodes="true"
     inkscape:snap-nodes="false"
     showguides="false">
    <inkscape:grid
       type="xygrid"
       id="grid1526" />
    <sodipodi:guide
       position="0.97013909,15.963209"
       orientation="56.666615,0"
       id="guide1528"
       inkscape:locked="false" />
    <sodipodi:guide
       position="0.97013909,0.97016731"
       orientation="0,56.666667"
       id="guide1530"
       inkscape:locked="false" />
    <sodipodi:guide
       position="15.963195,0.97016731"
       orientation="-56.666615,0"
       id="guide1532"
       inkscape:locked="false" />
    <sodipodi:guide
       position="15.963195,15.963209"
       orientation="0,-56.666667"
       id="guide1534"
       inkscape:locked="false" />
  </sodipodi:namedview>
  <metadata
     id="metadata976">
    <rdf:RDF>
      <cc:Work
         rdf:about="">
        <dc:format>image/svg+xml</dc:format>
        <dc:type
           rdf:resource="http://purl.org/dc/dcmitype/StillImage" />
        <dc:title></dc:title>
      </cc:Work>
    </rdf:RDF>
  </metadata>
  <g
     inkscape:label="Layer 1"
     inkscape:groupmode="layer"
     id="layer1"
     transform="translate(0,-280.06668)">
    <path
       style="color:#000000;font-style:normal;font-variant:normal;font-weight:normal;font-stretch:normal;font-size:medium;line-height:normal;font-family:sans-serif;font-variant-ligatures:normal;font-variant-position:normal;font-variant-caps:normal;font-variant-numeric:normal;font-variant-alternates:normal;font-feature-settings:normal;text-indent:0;text-align:start;text-decoration:none;text-decoration-line:none;text-decoration-style:solid;text-decoration-color:#000000;letter-spacing:normal;word-spacing:normal;text-transform:none;writing-mode:lr-tb;direction:ltr;text-orientation:mixed;dominant-baseline:auto;baseline-shift:baseline;text-anchor:start;white-space:normal;shape-padding:0;clip-rule:nonzero;display:inline;overflow:visible;visibility:visible;opacity:1;isolation:auto;mix-blend-mode:normal;color-interpolation:sRGB;color-interpolation-filters:linearRGB;solid-color:#000000;solid-opacity:1;vector-effect:none;fill:#000000;fill-opacity:1;fill-rule:nonzero;stroke:none;stroke-width:0.52916402;stroke-linecap:round;stroke-linejoin:round;stroke-miterlimit:4;stroke-dasharray:none;stroke-dashoffset:0;stroke-opacity:1;color-rendering:auto;image-rendering:auto;shape-rendering:auto;text-rendering:auto;enable-background:accumulate"
       d="m 1.9497734,282.99291 c -0.5360109,0 -0.9796346,0.44299 -0.9796346,0.979 v 9.12543 c 0,0.53601 0.4436237,0.97645 0.9796346,0.97645 H 14.986743 c 0.536011,0 0.976452,-0.44044 0.976452,-0.97645 v -9.12543 c 0,-0.53601 -0.440441,-0.979 -0.976452,-0.979 z m 0,0.65181 H 14.986743 c 0.186186,0 0.324636,0.14101 0.324636,0.32719 v 9.12543 c 0,0.18618 -0.13845,0.32463 -0.324636,0.32463 H 1.9497734 c -0.1861852,0 -0.3278179,-0.13845 -0.3278179,-0.32463 v -9.12543 c 0,-0.18618 0.1416327,-0.32719 0.3278179,-0.32719 z m 0.6518166,0.65182 a 0.32622608,0.32622608 0 1 0 0,0.65245 h 2.6079031 a 0.32622608,0.32622608 0 1 0 0,-0.65245 z m 8.797616,0 a 0.32622608,0.32622608 0 1 0 0,0.65245 h 0.327818 a 0.32622608,0.32622608 0 1 0 0,-0.65245 z m 1.30427,0 a 0.32622608,0.32622608 0 1 0 0,0.65245 h 0.327181 a 0.32622608,0.32622608 0 1 0 0,-0.65245 z m 1.303632,0 a 0.32622608,0.32622608 0 1 0 0,0.65245 h 0.327818 a 0.32622608,0.32622608 0 1 0 0,-0.65245 z m -8.8052532,1.29917 a 0.32593929,0.32593929 0 0 0 -0.319543,0.33229 v 6.51752 a 0.32598854,0.32598854 0 0 0 0.6518167,0 V 285.928 a 0.32593929,0.32593929 0 0 0 -0.3322737,-0.33229 z m -2.6002648,0.005 a 0.32599046,0.32599046 0 1 0 0,0.65182 h 0.3246354 a 0.32599046,0.32599046 0 1 0 0,-0.65182 z m 4.2368082,0 c -0.3554616,0 -0.6524532,0.29637 -0.6524532,0.65182 v 1.95608 c 0,0.35545 0.2969916,0.65182 0.6524532,0.65182 h 7.1687098 c 0.355462,0 0.652453,-0.29637 0.652453,-0.65182 v -1.95608 c 0,-0.35545 -0.296991,-0.65182 -0.652453,-0.65182 z m 0,0.65182 h 7.1687098 v 1.95608 H 6.8383982 Z m 3.2533548,0.32528 a 0.32593929,0.32593929 0 0 0 -0.03246,0.002 0.32593929,0.32593929 0 0 0 -0.2883528,0.3246 v 0.65245 a 0.32593929,0.32593929 0 0 0 0.5556988,0.23042 l 0.327182,-0.32718 a 0.32593929,0.32593929 0 0 0 0,-0.45895 l -0.32718,-0.32718 a 0.32593929,0.32593929 0 0 0 -0.234884,-0.0961 z m -7.5238996,0.32653 a 0.32666649,0.32666649 0 0 0 0.033737,0.65246 h 0.9764519 a 0.32623065,0.32623065 0 1 0 0,-0.65246 H 2.60159 a 0.32593929,0.32593929 0 0 0 -0.033737,0 z m 0,1.30427 a 0.32642515,0.32642515 0 0 0 0.033737,0.65182 h 1.3036327 a 0.32599046,0.32599046 0 1 0 0,-0.65182 H 2.60159 a 0.32593929,0.32593929 0 0 0 -0.033737,0 z m 0,1.30364 a 0.32666353,0.32666353 0 0 0 0.033737,0.65245 h 0.9764519 a 0.32622772,0.32622772 0 1 0 0,-0.65245 H 2.60159 a 0.32593929,0.32593929 0 0 0 -0.033737,0 z m 3.9433635,6.5e-4 c -0.2031103,-10e-6 -0.3252719,0.0814 -0.3252719,0.32463 v 2.6079 c 6.193e-4,0.17911 0.1461566,0.32464 0.3252719,0.32527 h 1.95545 c 0.1800539,6.6e-4 0.3265511,-0.14521 0.3271814,-0.32527 v -2.6079 c -6.519e-4,-0.18005 -0.1471324,-0.32533 -0.3271814,-0.32464 z m 2.9350846,0 c -0.1906995,-10e-6 -0.3271814,0.15879 -0.3271814,0.32463 v 2.6079 c 6.192e-4,0.18006 0.1471273,0.32532 0.3271814,0.32464 h 1.9535415 c 0.180054,6.6e-4 0.32655,-0.14458 0.327181,-0.32464 v -2.6079 c -6.53e-4,-0.18005 -0.147132,-0.32533 -0.327181,-0.32464 z m 2.9325385,0 c -0.204536,0 -0.32718,0.10889 -0.32718,0.32463 v 2.60791 c 6.18e-4,0.18005 0.147126,0.32532 0.32718,0.32463 h 1.956086 c 0.179116,-6.5e-4 0.324009,-0.14552 0.324635,-0.32463 v -2.60791 c -6.18e-4,-0.1791 -0.145524,-0.32401 -0.324635,-0.32463 z m -5.5404418,0.65197 h 1.3036334 v 1.95354 H 6.8383982 Z m 2.9325388,0 h 1.303633 v 1.95354 H 9.770937 Z m 2.932539,0 h 1.303632 v 1.95354 h -1.303632 z m -8.7619698,0.65054 a 0.32593929,0.32593929 0 0 0 -0.036283,0.001 H 2.60159 a 0.32593929,0.32593929 0 0 0 -0.033737,0 0.32593929,0.32593929 0 0 0 0.033737,0.64928 h 1.3036333 a 0.32593929,0.32593929 0 1 0 0.036283,-0.65054 z m -1.3399162,1.303 a 0.32599046,0.32599046 0 1 0 0,0.65182 h 0.9764519 a 0.32599046,0.32599046 0 1 0 0,-0.65182 z"
       id="rect8332"
       inkscape:connector-curvature="0" />
  </g>
</svg>
