<?xml version="1.0" encoding="UTF-8" standalone="no"?>
<!-- Created with Inkscape (http://www.inkscape.org/) -->

<svg
   xmlns:dc="http://purl.org/dc/elements/1.1/"
   xmlns:cc="http://creativecommons.org/ns#"
   xmlns:rdf="http://www.w3.org/1999/02/22-rdf-syntax-ns#"
   xmlns:svg="http://www.w3.org/2000/svg"
   xmlns="http://www.w3.org/2000/svg"
   xmlns:sodipodi="http://sodipodi.sourceforge.net/DTD/sodipodi-0.dtd"
   xmlns:inkscape="http://www.inkscape.org/namespaces/inkscape"
   width="48pt"
   height="48pt"
   viewBox="0 0 16.933334 16.933333"
   version="1.1"
   id="svg979"
   inkscape:version="0.92.4 (5da689c313, 2019-01-14)"
   sodipodi:docname="27 - Cinema Website.svg"
   inkscape:export-filename="E:\TR Design Studio Creative\Project Design\TR Creative Design\Icon Design\Project Hiring\Icon Icons\004 - Cinema\Send\02 - Solid\27 - Cinema Website.png"
   inkscape:export-xdpi="768"
   inkscape:export-ydpi="768">
  <defs
     id="defs973" />
  <sodipodi:namedview
     id="base"
     pagecolor="#ffffff"
     bordercolor="#666666"
     borderopacity="1.0"
     inkscape:pageopacity="0.0"
     inkscape:pageshadow="2"
     inkscape:zoom="8.078125"
     inkscape:cx="32"
     inkscape:cy="32"
     inkscape:document-units="pt"
     inkscape:current-layer="layer1"
     showgrid="false"
     units="pt"
     inkscape:window-width="1366"
     inkscape:window-height="716"
     inkscape:window-x="-8"
     inkscape:window-y="-8"
     inkscape:window-maximized="1"
     inkscape:snap-bbox="true"
     inkscape:bbox-nodes="true"
     inkscape:snap-nodes="false"
     showguides="false">
    <inkscape:grid
       type="xygrid"
       id="grid1526" />
    <sodipodi:guide
       position="0.97013909,15.963209"
       orientation="56.666615,0"
       id="guide1528"
       inkscape:locked="false" />
    <sodipodi:guide
       position="0.97013909,0.97016731"
       orientation="0,56.666667"
       id="guide1530"
       inkscape:locked="false" />
    <sodipodi:guide
       position="15.963195,0.97016731"
       orientation="-56.666615,0"
       id="guide1532"
       inkscape:locked="false" />
    <sodipodi:guide
       position="15.963195,15.963209"
       orientation="0,-56.666667"
       id="guide1534"
       inkscape:locked="false" />
  </sodipodi:namedview>
  <metadata
     id="metadata976">
    <rdf:RDF>
      <cc:Work
         rdf:about="">
        <dc:format>image/svg+xml</dc:format>
        <dc:type
           rdf:resource="http://purl.org/dc/dcmitype/StillImage" />
        <dc:title></dc:title>
      </cc:Work>
    </rdf:RDF>
  </metadata>
  <g
     inkscape:label="Layer 1"
     inkscape:groupmode="layer"
     id="layer1"
     transform="translate(0,-280.06668)">
    <path
       style="color:#000000;font-style:normal;font-variant:normal;font-weight:normal;font-stretch:normal;font-size:medium;line-height:normal;font-family:sans-serif;font-variant-ligatures:normal;font-variant-position:normal;font-variant-caps:normal;font-variant-numeric:normal;font-variant-alternates:normal;font-feature-settings:normal;text-indent:0;text-align:start;text-decoration:none;text-decoration-line:none;text-decoration-style:solid;text-decoration-color:#000000;letter-spacing:normal;word-spacing:normal;text-transform:none;writing-mode:lr-tb;direction:ltr;text-orientation:mixed;dominant-baseline:auto;baseline-shift:baseline;text-anchor:start;white-space:normal;shape-padding:0;clip-rule:nonzero;display:inline;overflow:visible;visibility:visible;opacity:1;isolation:auto;mix-blend-mode:normal;color-interpolation:sRGB;color-interpolation-filters:linearRGB;solid-color:#000000;solid-opacity:1;vector-effect:none;fill:#000000;fill-opacity:1;fill-rule:nonzero;stroke:none;stroke-width:0.52916402;stroke-linecap:round;stroke-linejoin:round;stroke-miterlimit:4;stroke-dasharray:none;stroke-dashoffset:0;stroke-opacity:1;color-rendering:auto;image-rendering:auto;shape-rendering:auto;text-rendering:auto;enable-background:accumulate"
       d="m 1.9497733,282.9929 c -0.5360132,0 -0.9796345,0.44297 -0.9796345,0.979 v 9.12543 c 0,0.53601 0.4436213,0.97646 0.9796345,0.97646 H 14.986743 c 0.536014,0 0.976452,-0.44045 0.976452,-0.97646 v -9.12543 c 0,-0.53603 -0.440438,-0.979 -0.976452,-0.979 z m 0.6518166,1.30364 h 2.6079029 a 0.32622606,0.32622606 0 0 1 0,0.65245 H 2.6015899 a 0.32622606,0.32622606 0 1 1 0,-0.65245 z m 8.7976141,0 h 0.327819 a 0.32622606,0.32622606 0 0 1 0,0.65245 h -0.327819 a 0.32622606,0.32622606 0 1 1 0,-0.65245 z m 1.304269,0 h 0.327183 a 0.32622606,0.32622606 0 0 1 0,0.65245 h -0.327183 a 0.32622606,0.32622606 0 1 1 0,-0.65245 z m 1.303636,0 h 0.327817 a 0.32622606,0.32622606 0 0 1 0,0.65245 h -0.327817 a 0.32622606,0.32622606 0 1 1 0,-0.65245 z m -8.8052545,1.29917 a 0.32593926,0.32593926 0 0 1 0.3322736,0.33227 v 6.51753 a 0.32598851,0.32598851 0 0 1 -0.6518166,0 v -6.51753 a 0.32593926,0.32593926 0 0 1 0.319543,-0.33227 z m -2.6002646,0.005 h 0.3246353 a 0.32599043,0.32599043 0 1 1 0,0.65181 H 2.6015899 a 0.32599043,0.32599043 0 1 1 0,-0.65181 z m 4.2368078,0 h 7.1687113 c 0.355462,0 0.652452,0.29636 0.652452,0.65181 v 1.95609 c 0,0.35546 -0.29699,0.65182 -0.652452,0.65182 H 6.8383977 c -0.3554616,0 -0.6524531,-0.29636 -0.6524531,-0.65182 v -1.95609 c 0,-0.35545 0.2969915,-0.65181 0.6524531,-0.65181 z m 0,0.65181 v 1.95609 h 7.1687113 v -1.95609 z m 3.2533543,0.32528 a 0.32593926,0.32593926 0 0 1 0.234883,0.0961 l 0.327182,0.32718 a 0.32593926,0.32593926 0 0 1 0,0.45895 l -0.327182,0.32717 a 0.32593926,0.32593926 0 0 1 -0.555699,-0.23041 v -0.65245 a 0.32593926,0.32593926 0 0 1 0.288353,-0.32464 0.32593926,0.32593926 0 0 1 0.03246,-0.002 z m -7.5238987,0.32654 a 0.32593926,0.32593926 0 0 1 0.033737,0 h 0.9764518 a 0.32622606,0.32622606 0 1 1 0,0.65245 H 2.6015899 a 0.32666187,0.32666187 0 0 1 -0.033737,-0.65245 z m 0,1.30427 a 0.32593926,0.32593926 0 0 1 0.033737,0 h 1.3036325 a 0.32599043,0.32599043 0 1 1 0,0.65182 H 2.6015899 a 0.32642513,0.32642513 0 0 1 -0.033737,-0.65182 z m 0,1.30363 a 0.32593926,0.32593926 0 0 1 0.033737,0 h 0.9764518 a 0.32623063,0.32623063 0 0 1 0,0.65246 H 2.6015899 a 0.32666647,0.32666647 0 0 1 -0.033737,-0.65246 z m 3.9433631,6.5e-4 h 1.9554499 c 0.180049,-6.5e-4 0.3265295,0.14459 0.3271813,0.32464 v 2.6079 c -6.193e-4,0.18006 -0.1471274,0.32593 -0.3271813,0.32527 H 6.5112164 c -0.1791152,-6.1e-4 -0.3246526,-0.14616 -0.3252718,-0.32527 v -2.6079 c 0,-0.20887 0.1178727,-0.32464 0.3252718,-0.32464 z m 2.9350843,0 h 1.9535403 c 0.180049,-6.5e-4 0.32653,0.14459 0.327182,0.32464 v 2.6079 c -6.2e-4,0.18006 -0.147128,0.32529 -0.327182,0.32465 H 9.4463007 c -0.180054,6.9e-4 -0.3265621,-0.1446 -0.3271813,-0.32465 v -2.6079 c 0,-0.18659 0.1579824,-0.32464 0.3271813,-0.32464 z m 2.9325383,0 h 1.956087 c 0.17911,6.6e-4 0.324016,0.14553 0.324635,0.32464 v 2.6079 c -6.19e-4,0.17911 -0.14552,0.32399 -0.324635,0.32465 h -1.956087 c -0.180054,6.5e-4 -0.326561,-0.14459 -0.327181,-0.32465 v -2.6079 c 0,-0.19606 0.124914,-0.32464 0.327181,-0.32464 z m -5.5404413,0.65199 v 1.95354 H 8.142031 v -1.95354 z m 2.9325383,0 v 1.95354 h 1.303634 v -1.95354 z m 2.932537,0 v 1.95354 h 1.303636 v -1.95354 z m -8.7619672,0.65054 a 0.32593926,0.32593926 0 1 1 -0.036283,0.65053 H 2.6015899 a 0.32593926,0.32593926 0 0 1 -0.033737,-0.64925 0.32593926,0.32593926 0 0 1 0.033737,0 H 3.905223 a 0.32593926,0.32593926 0 0 1 0.036283,-0.001 z m -1.3399159,1.303 h 0.9764518 a 0.32599043,0.32599043 0 1 1 0,0.65182 H 2.6015899 a 0.32599043,0.32599043 0 1 1 0,-0.65182 z"
       id="path4445"
       inkscape:connector-curvature="0" />
  </g>
</svg>
